<svg xmlns="http://www.w3.org/2000/svg" id="Calque_1" data-name="Calque 1" viewBox="0 0 69.89 362.18"><defs><style>      .cls-1 {        fill: #fff;      }    </style></defs><g id="kvWOvk"><path d="M39.99,252.48c6.76.1,12.8,1.16,18.19,4.48,8.29,5.12,12.12,12.69,11.67,22.36-.53,11.37-8.33,19.56-18.82,22.41-5.14,1.4-10.34,1.66-15.61,1.12-7.79-.8-15.1-3.09-21.89-7.01-3.89-2.25-7.4-4.96-10.08-8.61-4.57-6.24-4.6-12.55-.06-18.76,3.5-4.8,8.33-7.97,13.6-10.53,5.8-2.81,11.92-4.5,18.32-5.14,1.72-.17,3.46-.25,4.67-.33h.01Z"></path></g><path class="cls-1" d="M21.59,291.98c0,.12-.02.25-.05.37-.2.79-1.01,1.26-1.8,1.06-9.31-2.4-14.22-10.11-14.42-10.43-.43-.69-.22-1.6.47-2.03s1.6-.22,2.03.47h0c.04.07,4.52,7.04,12.66,9.14.67.17,1.11.77,1.11,1.43h0Z"></path><path d="M45.05,187.36c7.37,0,13.36,2.54,17.95,7.62s6.89,11.3,6.89,18.67-2.3,13.57-6.89,18.57-10.57,7.52-17.95,7.52H8.72c-4.69,0-8.49-3.8-8.49-8.49H.23c0-4.69,3.8-8.49,8.49-8.49h35.94c3.17,0,5.64-.81,7.42-2.43s2.67-3.85,2.67-6.69-.89-5.11-2.67-6.79-4.25-2.52-7.42-2.52H8.72c-4.69,0-8.49-3.8-8.49-8.49H.23c0-4.69,3.8-8.49,8.49-8.49h36.33,0Z"></path><path d="M31.45,123.45h10.3c.52,0,1.61.03,3.27.1s2.82.16,3.47.29,1.66.29,3.03.49,2.46.47,3.27.83c.82.36,1.77.78,2.88,1.27s2.1,1.07,2.98,1.76c.88.68,1.74,1.45,2.59,2.3,4.43,4.43,6.64,10.55,6.64,18.35v21.56c0,1.95-1.58,3.53-3.53,3.53H3.87c-1.95,0-3.53-1.58-3.53-3.53v-21.56c0-7.81,2.21-13.93,6.64-18.35.85-.85,1.71-1.61,2.59-2.3.88-.68,1.85-1.27,2.93-1.76,1.07-.49,2-.91,2.78-1.27s1.84-.63,3.17-.83c1.34-.2,2.31-.36,2.93-.49s1.74-.23,3.37-.29,2.69-.1,3.17-.1h3.53ZM34.92,140.86c-3.71,0-6.4.12-8.08.36s-3.02.78-4.03,1.6c-1.92,1.57-2.88,3.84-2.88,6.81v4.51c0,1.31,1.06,2.37,2.37,2.37h25.63c1.31,0,2.37-1.06,2.37-2.37v-4.51c0-2.97-.96-5.24-2.88-6.81-1-.83-2.39-1.36-4.16-1.6s-4.55-.36-8.34-.36Z"></path><path d="M6.83,317.2c4.4-4.24,9.68-6.36,15.81-6.36,4.11,0,8.19,1.12,11.71,3.24,7.13,4.31,10.69,11.15,10.69,20.52v10.47h16.29c4.73,0,8.56,3.83,8.56,8.56h0c0,4.73-3.83,8.56-8.56,8.56H3.66c-1.89,0-3.43-1.53-3.43-3.43v-24.15c0-7.37,2.2-13.17,6.6-17.4ZM27.57,330c-1.4-1.37-3.05-2.05-4.94-2.05s-3.54.68-4.94,2.05-2.1,3.17-2.1,5.38v9.68h14.09v-9.68c0-2.22-.7-4.01-2.1-5.38,0,0,0,0,0,0h0Z"></path><path d="M69.88,7.64v36.23c0,1.96-1.59,3.54-3.54,3.54H3.65c-1.96,0-3.54-1.59-3.54-3.54V7.64C.11,3.42,3.53,0,7.75,0h0c4.22,0,7.64,3.42,7.64,7.64v16.8c0,3.22,2.61,5.83,5.83,5.83h0c3.22,0,5.83-2.61,5.83-5.83v-12.4c0-4.22,3.42-7.64,7.64-7.64h0c4.22,0,7.64,3.42,7.64,7.64v12.1c0,3.38,2.74,6.12,6.12,6.12h0c3.38,0,6.12-2.74,6.12-6.12V7.64c0-4.22,3.42-7.64,7.64-7.64h0c4.22,0,7.64,3.42,7.64,7.64h.03Z"></path><path d="M69.86,70.28h0c0,3.37-1.94,6.43-4.98,7.87l-18.92,9c-1.23.59-2.02,1.83-2.02,3.19h0c0,1.95,1.58,3.54,3.54,3.54l14.23.72c8.5.34,8.25,6.04,8.15,8.26h0c0,4.49-3.64,8.13-8.13,8.13H3.76c-1.95,0-3.53-1.58-3.53-3.53v-24.03c0-11.4,5.27-19.04,15.81-22.96.26-.1.53-.17.8-.22,6.94-1.31,12.6-.39,16.98,2.75,2.18,1.56,3.99,3.35,5.41,5.37,1.02,1.45,2.94,1.95,4.52,1.13l13.38-6.94c5.8-3.01,12.73,1.2,12.73,7.74ZM27.56,78.81c-1.4-1.37-3.05-2.05-4.94-2.05s-3.54.69-4.94,2.05c-1.4,1.37-2.1,3.16-2.1,5.38v6.15c0,1.95,1.58,3.54,3.54,3.54h7.01c1.95,0,3.54-1.58,3.54-3.54v-6.15c0-2.21-.7-4.01-2.1-5.38,0,0,0,0,0,0h-.01Z"></path></svg>